<?xml version="1.0" standalone="no"?>
<!DOCTYPE svg PUBLIC "-//W3C//DTD SVG 20010904//EN"
 "http://www.w3.org/TR/2001/REC-SVG-20010904/DTD/svg10.dtd">
<svg version="1.0" xmlns="http://www.w3.org/2000/svg"
 width="236.000000pt" height="79.000000pt" viewBox="0 0 236.000000 79.000000"
 preserveAspectRatio="xMidYMid meet">

<g transform="translate(0.000000,79.000000) scale(0.100000,-0.100000)"
fill="#000000" stroke="none">
<path d="M572 637 c-18 -22 -31 -98 -32 -187 -1 -102 -16 -155 -45 -155 -19 0
-20 6 -18 83 l2 82 -29 0 -30 0 0 -77 c0 -97 14 -127 59 -131 20 -2 40 3 50
12 16 15 19 14 29 -9 9 -18 19 -25 41 -25 40 0 61 9 61 27 0 11 -7 13 -29 8
-24 -5 -29 -3 -35 18 -4 16 2 43 16 73 31 69 40 261 12 281 -23 16 -39 17 -52
0z m29 -209 c-8 -28 -9 -19 -10 53 -1 47 2 89 7 93 11 12 14 -108 3 -146z"/>
<path d="M1859 643 c0 -5 0 -43 1 -85 l1 -78 -35 0 c-44 0 -59 -20 -82 -110
-9 -36 -20 -72 -25 -81 -13 -26 -48 -30 -70 -8 -24 24 -24 39 -1 39 27 0 62
42 69 84 12 74 -65 105 -109 44 -34 -48 -38 -152 -8 -190 26 -34 85 -38 121
-9 23 18 24 18 50 -1 33 -25 70 -20 85 10 10 20 13 21 24 7 16 -19 64 -19 80
0 11 13 15 11 32 -10 27 -35 89 -35 123 -1 23 23 25 23 30 5 11 -35 97 -40
103 -6 3 14 -2 17 -25 15 -37 -4 -41 20 -14 99 25 75 37 208 22 246 -20 52
-68 47 -83 -9 -5 -16 -12 -89 -17 -163 -8 -130 -9 -136 -36 -158 -24 -22 -29
-23 -49 -10 -28 19 -33 47 -8 47 43 0 81 83 59 129 -10 20 -20 26 -46 26 -45
0 -67 -31 -85 -115 -8 -44 -18 -66 -28 -68 -25 -5 -31 47 -23 210 l7 148 -31
0 c-17 0 -31 -3 -32 -7z m332 -225 c-8 -28 -9 -23 -10 42 -1 101 13 149 17 58
2 -37 -1 -82 -7 -100z m-511 -4 c0 -29 -16 -64 -30 -64 -14 0 -12 34 2 65 15
32 28 32 28 -1z m180 1 c0 -40 -20 -122 -35 -141 -13 -17 -16 -17 -25 -4 -13
18 -5 107 12 145 15 33 48 34 48 0z m210 2 c0 -27 -28 -70 -40 -62 -8 5 1 53
15 75 11 18 25 11 25 -13z"/>
<path d="M233 603 c-13 -20 -19 -52 -21 -125 -4 -97 -4 -98 -29 -98 -13 0 -33
5 -44 10 -16 9 -19 7 -19 -9 0 -24 36 -51 67 -51 18 0 23 -6 23 -25 0 -22 -4
-25 -37 -25 -72 0 -118 -47 -77 -77 25 -18 114 -17 142 3 21 14 27 14 69 0 62
-21 123 -21 123 0 0 10 -6 13 -19 9 -11 -3 -39 5 -66 20 -27 14 -54 25 -61 25
-9 0 -14 12 -14 33 0 27 6 35 37 52 52 28 83 85 83 156 0 71 -22 102 -84 118
-58 14 -53 15 -73 -16z m95 -35 c17 -17 15 -103 -3 -138 -8 -16 -24 -34 -35
-40 -19 -10 -20 -7 -20 70 0 106 21 145 58 108z m-139 -334 c10 -9 -11 -17
-40 -16 -37 1 -49 10 -29 22 13 8 57 4 69 -6z"/>
<path d="M905 610 c-89 -29 -123 -66 -123 -135 -1 -23 -27 -152 -37 -177 -4
-10 -14 -18 -22 -18 -12 0 -14 15 -11 83 2 45 7 90 12 99 6 13 2 20 -19 30
-38 17 -45 1 -45 -119 0 -98 1 -102 26 -122 35 -28 50 -26 68 7 13 24 15 24
16 6 0 -11 -11 -31 -24 -44 -59 -54 -87 -178 -47 -200 31 -16 57 -12 90 16 30
25 31 28 31 108 0 50 5 87 12 94 9 9 9 15 0 24 -19 19 -16 162 3 178 12 10 14
24 10 54 -6 36 -3 44 20 66 23 22 37 25 115 28 84 4 89 3 119 -25 39 -34 53
-87 41 -159 -17 -101 -62 -150 -115 -126 -25 12 -25 12 -25 147 0 133 0 135
-22 135 -13 0 -27 -4 -33 -8 -6 -4 -9 -62 -7 -148 l3 -142 43 -16 c23 -9 54
-16 70 -16 80 0 148 100 150 219 0 78 -22 124 -75 155 -47 28 -149 31 -224 6z
m-145 -544 c-5 -15 -16 -26 -23 -24 -21 8 -19 65 5 115 l23 48 3 -56 c1 -30
-2 -68 -8 -83z"/>
<path d="M417 554 c-16 -16 15 -44 48 -44 38 0 40 2 25 31 -10 18 -59 27 -73
13z"/>
<path d="M1258 478 c-24 -38 -38 -88 -38 -139 0 -39 5 -55 28 -78 41 -46 75
-50 112 -13 17 17 30 41 30 55 0 13 8 31 18 40 16 14 21 12 61 -23 49 -42 49
-70 1 -45 -37 19 -50 19 -50 0 0 -34 104 -49 134 -19 24 23 21 30 -31 79 -41
38 -46 47 -37 62 8 12 21 17 42 15 23 -2 32 2 37 17 10 34 -4 44 -52 38 -48
-5 -88 -34 -106 -77 -9 -23 -10 -23 -14 -5 -11 57 -16 69 -40 91 -33 31 -76
31 -95 2z m82 -37 c13 -26 13 -88 -1 -96 -5 -4 -21 -4 -35 -1 -19 5 -24 13
-24 39 0 33 23 77 40 77 5 0 14 -9 20 -19z m-3 -155 c-6 -17 -61 -14 -65 5 -2
12 5 14 33 11 21 -3 34 -9 32 -16z"/>
</g>
</svg>
