<?xml version="1.0" standalone="no"?>
<!DOCTYPE svg PUBLIC "-//W3C//DTD SVG 20010904//EN"
 "http://www.w3.org/TR/2001/REC-SVG-20010904/DTD/svg10.dtd">
<svg version="1.0" xmlns="http://www.w3.org/2000/svg"
 width="283.000000pt" height="69.000000pt" viewBox="0 0 283.000000 69.000000"
 preserveAspectRatio="xMidYMid meet">

<g transform="translate(0.000000,69.000000) scale(0.100000,-0.100000)"
fill="#000000" stroke="none">
<path d="M320 600 c-15 -16 -38 -55 -50 -87 -29 -71 -26 -68 -45 -53 -9 7 -15
29 -15 52 0 35 -2 39 -15 28 -25 -21 -19 -67 14 -91 l28 -21 -17 -56 c-10 -32
-27 -79 -37 -107 l-19 -50 -60 3 c-71 4 -86 -11 -53 -52 24 -30 45 -32 92 -10
32 15 36 15 95 -10 84 -36 140 -33 156 9 4 12 0 14 -19 9 -25 -6 -148 19 -175
36 -10 6 -11 12 -2 22 6 8 27 54 46 103 32 85 36 89 73 100 79 23 123 75 123
143 0 66 -71 85 -120 32z m79 6 c19 -22 -5 -94 -44 -133 -32 -32 -65 -44 -65
-23 0 20 50 133 67 152 19 22 27 22 42 4z m-281 -411 c19 -5 21 -9 11 -21 -15
-18 -53 -18 -69 1 -15 18 -4 37 18 31 10 -2 27 -7 40 -11z"/>
<path d="M752 588 c-44 -64 -108 -196 -133 -274 -26 -80 -74 -137 -111 -132
-35 5 -34 41 6 123 24 51 31 77 24 81 -18 11 -64 -52 -83 -113 -24 -76 -14
-107 37 -111 29 -2 43 3 71 28 l35 30 6 -25 c7 -28 39 -45 68 -37 10 2 31 18
48 35 l30 31 16 -22 c21 -31 52 -27 92 11 27 25 33 28 29 12 -3 -11 -9 -32
-13 -47 -4 -18 -21 -36 -47 -52 -90 -53 -116 -118 -50 -124 34 -3 61 24 102
105 12 24 39 54 63 70 23 15 51 44 62 63 18 30 13 27 -33 -20 -29 -30 -55 -50
-57 -45 -3 6 5 37 16 70 35 101 17 146 -23 59 -24 -50 -65 -94 -89 -94 -25 0
-24 51 2 108 16 36 17 44 5 48 -22 9 -32 -2 -55 -64 -12 -31 -33 -72 -46 -89
-31 -41 -69 -45 -78 -8 -10 40 4 76 55 137 65 78 113 178 113 236 1 64 -22 67
-62 10z m9 -123 c-23 -45 -55 -97 -72 -116 l-29 -34 25 70 c27 72 65 146 94
179 34 39 24 -16 -18 -99z m73 -377 c-22 -43 -44 -68 -61 -68 -25 0 -13 38 22
69 46 40 60 39 39 -1z"/>
<path d="M1165 620 c-71 -22 -132 -102 -104 -136 19 -23 26 -17 32 26 3 23 11
48 18 56 23 28 72 46 121 46 93 0 132 -52 126 -166 -7 -153 -129 -306 -243
-306 -19 0 -35 3 -35 8 0 28 90 321 125 403 10 26 -12 32 -34 10 -20 -20 -98
-247 -122 -356 -17 -75 -5 -89 71 -83 72 6 124 31 183 90 114 113 142 302 57
383 -27 26 -39 30 -98 32 -37 1 -80 -2 -97 -7z"/>
<path d="M2371 573 c-16 -32 -48 -105 -71 -163 -60 -147 -117 -226 -157 -218
-27 5 -27 41 1 96 29 57 68 92 102 92 13 0 24 5 24 10 0 18 -56 10 -90 -12
-18 -13 -47 -45 -64 -72 -17 -27 -50 -69 -72 -92 -36 -38 -47 -44 -83 -44 -35
0 -43 4 -51 26 -13 33 -7 41 42 56 22 6 56 27 75 44 28 27 34 39 31 66 -2 26
-8 34 -26 36 -55 8 -127 -51 -159 -129 -15 -37 -38 -59 -63 -59 -6 0 -9 4 -5
10 3 5 -2 40 -11 77 -8 37 -17 79 -17 93 -3 42 -21 37 -36 -9 -17 -55 -110
-151 -146 -151 l-24 0 19 43 c33 71 23 127 -22 127 -10 0 -27 -9 -38 -20 -25
-25 -27 -96 -3 -129 16 -23 15 -25 -11 -48 -67 -57 -81 -8 -31 111 6 14 4 17
-11 15 -23 -5 -64 -82 -64 -121 0 -39 37 -62 76 -48 16 6 41 23 56 37 14 14
31 22 36 19 6 -3 22 -2 36 4 23 8 26 7 26 -11 0 -11 11 -31 25 -44 33 -34 78
-33 114 3 16 15 39 32 52 38 20 9 26 7 44 -19 11 -17 32 -34 46 -38 32 -8 93
12 125 42 l23 22 10 -27 c10 -24 24 -31 61 -27 8 1 36 24 62 51 l47 50 -6 -35
c-11 -66 42 -86 103 -40 32 25 33 25 39 4 10 -29 60 -48 102 -39 37 9 103 55
103 72 0 6 -10 2 -22 -9 -47 -42 -110 -57 -136 -31 -27 27 -14 53 36 70 57 21
99 56 108 92 10 40 -1 56 -39 56 -46 0 -110 -57 -147 -131 -26 -50 -67 -89
-95 -89 -10 0 -5 86 9 130 8 25 39 101 70 168 31 68 56 130 56 138 0 33 -32
10 -59 -43z m-783 -225 c2 -14 -4 -43 -13 -64 -14 -35 -17 -37 -27 -21 -5 11
-10 34 -10 53 0 60 43 87 50 32z m452 28 c0 -36 -59 -96 -109 -111 l-23 -7 23
42 c27 48 63 80 90 80 11 0 19 -2 19 -4z m510 -15 c0 -31 -100 -114 -117 -98
-8 8 17 49 50 85 34 36 67 42 67 13z m-791 -108 c1 -49 -11 -54 -46 -21 -29
27 -29 32 4 75 27 36 28 36 34 12 4 -13 7 -43 8 -66z m-42 -39 c21 -14 39 -27
41 -29 2 -2 -6 -9 -18 -15 -29 -16 -70 11 -70 45 0 31 1 31 47 -1z"/>
<path d="M2748 578 c-47 -71 -91 -159 -118 -238 -12 -36 -26 -73 -31 -82 -12
-24 13 -90 38 -99 32 -12 82 21 111 71 28 49 21 45 -22 -12 -47 -66 -94 -44
-79 36 4 17 26 53 49 80 62 72 118 186 118 244 1 67 -22 67 -66 0z m14 -112
c-23 -44 -55 -97 -71 -116 l-31 -35 14 41 c17 50 72 159 100 199 39 55 31 -1
-12 -89z"/>
<path d="M550 485 c-14 -17 -5 -35 19 -35 20 0 41 19 41 37 0 18 -45 17 -60
-2z"/>
</g>
</svg>
